<svg width="56" height="58" viewBox="0 0 56 58" fill="none" xmlns="http://www.w3.org/2000/svg">
<g filter="url(#filter0_d_17_237)">
<rect width="51.1416" height="50" rx="19" fill="#02897A"/>
<path d="M29.5497 26.5982L20.4068 17.4554C20.2997 17.3393 20.1568 17.2857 20.005 17.2857C19.9336 17.2857 19.8532 17.3036 19.7907 17.3304C19.5765 17.4196 19.4336 17.625 19.4336 17.8571V31.2857C19.4336 31.5179 19.5765 31.7232 19.7907 31.8125C19.8532 31.8393 19.9336 31.8571 20.005 31.8571C20.1568 31.8571 20.2997 31.7946 20.4068 31.6875L23.1925 28.9018L24.8979 32.9375C25.0229 33.2232 25.3532 33.3661 25.6479 33.2411L27.2282 32.5714C27.514 32.4464 27.6568 32.1161 27.5318 31.8214L25.7372 27.5714H29.1479C29.38 27.5714 29.5854 27.4286 29.6747 27.2143C29.764 27.0089 29.7193 26.7589 29.5497 26.5982Z" fill="white"/>
</g>
<defs>
<filter id="filter0_d_17_237" x="-4" y="0" width="60.1643" height="58" filterUnits="userSpaceOnUse" color-interpolation-filters="sRGB">
<feFlood flood-opacity="0" result="BackgroundImageFix"/>
<feColorMatrix in="SourceAlpha" type="matrix" values="0 0 0 0 0 0 0 0 0 0 0 0 0 0 0 0 0 0 127 0" result="hardAlpha"/>
<feOffset dy="4"/>
<feGaussianBlur stdDeviation="2"/>
<feColorMatrix type="matrix" values="0 0 0 0 0 0 0 0 0 0 0 0 0 0 0 0 0 0 0.25 0"/>
<feBlend mode="normal" in2="BackgroundImageFix" result="effect1_dropShadow_17_237"/>
<feBlend mode="normal" in="SourceGraphic" in2="effect1_dropShadow_17_237" result="shape"/>
</filter>
</defs>
</svg>
