<svg width="60" height="58" viewBox="0 0 60 58" fill="none" xmlns="http://www.w3.org/2000/svg">
<g clip-path="url(#clip0_17_251)" filter="url(#filter0_d_17_251)">
<rect x="4.05933" width="51.1416" height="50" rx="19" fill="#740A76"/>
<path d="M29.4475 33.1429C29.5904 33.1429 29.7332 33.0893 29.8404 32.9821L35.4029 27.625C35.4832 27.5446 37.4475 25.75 37.4475 23.6071C37.4475 20.9911 35.8493 19.4286 33.1797 19.4286C31.6172 19.4286 30.1529 20.6607 29.4475 21.3571C28.7422 20.6607 27.2779 19.4286 25.7154 19.4286C23.0457 19.4286 21.4475 20.9911 21.4475 23.6071C21.4475 25.75 23.4118 27.5446 23.4832 27.6071L29.0547 32.9821C29.1618 33.0893 29.3047 33.1429 29.4475 33.1429Z" fill="white"/>
</g>
<defs>
<filter id="filter0_d_17_251" x="0.0593262" y="0" width="59.1416" height="58" filterUnits="userSpaceOnUse" color-interpolation-filters="sRGB">
<feFlood flood-opacity="0" result="BackgroundImageFix"/>
<feColorMatrix in="SourceAlpha" type="matrix" values="0 0 0 0 0 0 0 0 0 0 0 0 0 0 0 0 0 0 127 0" result="hardAlpha"/>
<feOffset dy="4"/>
<feGaussianBlur stdDeviation="2"/>
<feColorMatrix type="matrix" values="0 0 0 0 0 0 0 0 0 0 0 0 0 0 0 0 0 0 0.25 0"/>
<feBlend mode="normal" in2="BackgroundImageFix" result="effect1_dropShadow_17_251"/>
<feBlend mode="normal" in="SourceGraphic" in2="effect1_dropShadow_17_251" result="shape"/>
</filter>
<clipPath id="clip0_17_251">
<rect width="51.1416" height="50" fill="white" transform="translate(4.05933)"/>
</clipPath>
</defs>
</svg>
