<svg width="60" height="58" viewBox="0 0 60 58" fill="none" xmlns="http://www.w3.org/2000/svg">
<g clip-path="url(#clip0_17_258)" filter="url(#filter0_d_17_258)">
<rect x="4.52051" width="51.1416" height="50" rx="19" fill="#F03E3D"/>
<path d="M35.5031 19.4286H36.3602C36.5209 19.4286 36.6459 19.3036 36.6459 19.1429V18.5714C36.6459 18.4107 36.5209 18.2857 36.3602 18.2857H23.2174C23.0566 18.2857 22.9316 18.4107 22.9316 18.5714V19.1429C22.9316 19.3036 23.0566 19.4286 23.2174 19.4286H24.0745C24.0745 22.7321 25.6549 25.125 27.4049 26.2857C25.6549 27.4464 24.0745 29.8393 24.0745 33.1429H23.2174C23.0566 33.1429 22.9316 33.2679 22.9316 33.4286V34C22.9316 34.1607 23.0566 34.2857 23.2174 34.2857H36.3602C36.5209 34.2857 36.6459 34.1607 36.6459 34V33.4286C36.6459 33.2679 36.5209 33.1429 36.3602 33.1429H35.5031C35.5031 29.8393 33.9227 27.4464 32.1727 26.2857C33.9227 25.125 35.5031 22.7321 35.5031 19.4286ZM34.3602 19.4286C34.3602 20.7321 34.0656 21.8839 33.6013 22.8571H25.9763C25.512 21.8839 25.2174 20.7321 25.2174 19.4286H34.3602ZM33.8513 30.2857H25.7263C26.387 28.5625 27.5745 27.3393 28.762 26.8571H30.8156C32.0031 27.3393 33.1906 28.5625 33.8513 30.2857Z" fill="white"/>
</g>
<defs>
<filter id="filter0_d_17_258" x="0.520508" y="0" width="59.1416" height="58" filterUnits="userSpaceOnUse" color-interpolation-filters="sRGB">
<feFlood flood-opacity="0" result="BackgroundImageFix"/>
<feColorMatrix in="SourceAlpha" type="matrix" values="0 0 0 0 0 0 0 0 0 0 0 0 0 0 0 0 0 0 127 0" result="hardAlpha"/>
<feOffset dy="4"/>
<feGaussianBlur stdDeviation="2"/>
<feColorMatrix type="matrix" values="0 0 0 0 0 0 0 0 0 0 0 0 0 0 0 0 0 0 0.25 0"/>
<feBlend mode="normal" in2="BackgroundImageFix" result="effect1_dropShadow_17_258"/>
<feBlend mode="normal" in="SourceGraphic" in2="effect1_dropShadow_17_258" result="shape"/>
</filter>
<clipPath id="clip0_17_258">
<rect width="51.1416" height="50" fill="white" transform="translate(4.52051)"/>
</clipPath>
</defs>
</svg>
