<svg width="548" height="474" viewBox="0 0 548 474" fill="none" xmlns="http://www.w3.org/2000/svg">
<path d="M80.8988 428.026C187.752 488.62 361.007 488.62 467.86 428.026C574.713 367.433 574.713 269.189 467.86 208.582C361.007 147.976 187.801 147.989 80.8988 208.582C-26.0034 269.176 -25.9057 367.433 80.8988 428.026Z" fill="#F5F5F5"/>
<path d="M51.1125 328.655L16.3784 306.892V226.022L51.1125 247.798V328.655Z" fill="#E0E0E0"/>
<path d="M51.1125 247.798L100.74 216.699V297.556L51.1125 328.655V247.798Z" fill="#EBEBEB"/>
<path d="M100.74 216.699L51.1125 247.798L16.3784 226.022L66.0055 194.923L100.74 216.699Z" fill="#F5F5F5"/>
<path d="M56.085 250.901L95.7793 226.022L96.6956 226.592V256.551L56.9891 281.43L56.0728 280.86L56.085 250.901Z" fill="#E0E0E0"/>
<path d="M56.9893 251.485L96.6958 226.592V256.551L56.9893 281.43V251.485Z" fill="#F5F5F5"/>
<path d="M72.5541 246.803L79.3103 242.573C80.1777 242.016 80.8863 242.268 80.8863 243.13C80.8234 243.658 80.6483 244.163 80.3747 244.604C80.1012 245.046 79.7368 245.413 79.3103 245.676L72.5541 249.906C71.6744 250.463 70.9658 250.212 70.9658 249.349C71.0292 248.82 71.2058 248.314 71.4816 247.872C71.7574 247.43 72.1247 247.064 72.5541 246.803Z" fill="#E0E0E0"/>
<path d="M55.1685 288.803L94.8628 263.924V293.882L95.7791 294.453L56.0725 319.332L55.1685 318.762V288.803Z" fill="#E0E0E0"/>
<path d="M56.0728 289.374L95.7793 264.495V294.453L56.0728 319.333V289.374Z" fill="#F5F5F5"/>
<path d="M71.638 284.706L78.4553 280.489C79.335 279.932 80.0436 280.184 80.0436 281.046C79.9802 281.575 79.8036 282.081 79.5278 282.523C79.252 282.966 78.8847 283.331 78.4553 283.592L71.6991 287.822C70.8195 288.379 70.1108 288.127 70.1108 287.265C70.1657 286.74 70.3322 286.235 70.5972 285.791C70.8622 285.347 71.2185 284.975 71.638 284.706Z" fill="#E0E0E0"/>
<path d="M51.1125 243.13L16.3784 221.354V140.496L51.1125 162.259V243.13Z" fill="#E0E0E0"/>
<path d="M51.1125 162.259L100.74 131.16V212.031L51.1125 243.13V162.259Z" fill="#EBEBEB"/>
<path d="M100.74 131.16L51.1125 162.259L16.3784 140.496L66.0055 109.397L100.74 131.16Z" fill="#F5F5F5"/>
<path d="M56.0728 165.375L95.7793 140.496L96.6956 141.066V171.025L56.9891 195.904L56.0728 195.32V165.375Z" fill="#E0E0E0"/>
<path d="M72.5541 161.264L79.2981 157.034C80.1777 156.49 80.8863 156.742 80.8863 157.604C80.8212 158.133 80.6438 158.638 80.3682 159.08C80.0926 159.522 79.7263 159.888 79.2981 160.15L72.5541 164.381C71.6744 164.924 70.9658 164.686 70.9658 163.824C71.0301 163.293 71.207 162.785 71.4826 162.341C71.7582 161.897 72.125 161.528 72.5541 161.264Z" fill="#E0E0E0"/>
<path d="M55.1685 203.278L94.8628 178.399V208.344L95.7791 208.914L56.0725 233.793L55.1685 233.223V203.278Z" fill="#E0E0E0"/>
<path d="M56.0728 203.848L95.7793 178.969V208.914L56.0728 233.793V203.848Z" fill="#F5F5F5"/>
<path d="M71.6376 199.167L78.4549 194.936C79.3223 194.392 80.0431 194.644 80.0431 195.506C79.9744 196.034 79.7956 196.538 79.5203 196.979C79.2451 197.42 78.8807 197.788 78.4549 198.053L71.6376 202.243C70.7579 202.787 70.0493 202.535 70.0493 201.686C70.119 201.163 70.2983 200.663 70.5737 200.226C70.849 199.789 71.213 199.427 71.6376 199.167Z" fill="#E0E0E0"/>
<path d="M56.0728 165.375L95.7793 140.496V170.441L56.0728 195.32V165.375Z" fill="#E0E0E0"/>
<path d="M115.632 155.297L93.8977 141.677V168.068L115.632 181.674V155.297Z" fill="#E0E0E0"/>
<path d="M70.9658 199.591V162.259L79.4813 156.901L80.8863 159.156L105.7 143.6V177.815L70.9658 199.591Z" fill="#EBEBEB"/>
<path d="M70.9658 199.591L73.4459 166.927L108.18 145.164L105.7 177.815L70.9658 199.591Z" fill="#F5F5F5"/>
<path d="M75.9262 180.176L56.9893 168.306V194.697L75.9262 206.553V180.176Z" fill="#EBEBEB"/>
<path d="M75.926 177.815L115.633 152.936V182.881L75.926 207.76V177.815Z" fill="#F5F5F5"/>
<path d="M91.4911 173.134L98.2351 168.903C99.1147 168.359 99.8233 168.611 99.8233 169.473C99.7573 170.002 99.5795 170.507 99.304 170.948C99.0285 171.39 98.6627 171.757 98.2351 172.02L91.4911 176.25C90.6114 176.794 89.9028 176.542 89.9028 175.693C89.9671 175.162 90.144 174.655 90.4196 174.211C90.6952 173.767 91.062 173.398 91.4911 173.134Z" fill="#E0E0E0"/>
<path d="M75.9262 177.815L74.6067 176.992V206.938L75.9262 207.76V177.815Z" fill="#E0E0E0"/>
<path d="M74.6067 176.993L114.301 152.1L115.633 152.936L75.9262 177.815L74.6067 176.993Z" fill="#EBEBEB"/>
<path d="M461.47 279.666L426.724 257.89V177.032L461.47 198.795V279.666Z" fill="#E0E0E0"/>
<path d="M461.47 198.795L511.097 167.696V248.567L461.47 279.666V198.795Z" fill="#EBEBEB"/>
<path d="M511.097 167.696L461.47 198.795L426.724 177.032L476.363 145.92L511.097 167.696Z" fill="#F5F5F5"/>
<path d="M466.431 201.911L506.137 177.032L507.053 177.602L507.041 207.548L467.347 232.427L466.431 231.857V201.911Z" fill="#E0E0E0"/>
<path d="M467.347 202.482L507.053 177.603L507.041 207.548L467.347 232.428V202.482Z" fill="#F5F5F5"/>
<path d="M482.912 197.801L489.656 193.57C490.536 193.027 491.244 193.279 491.244 194.127C491.18 194.658 491.003 195.166 490.727 195.61C490.452 196.054 490.085 196.423 489.656 196.687L482.912 200.917C482.032 201.461 481.324 201.209 481.324 200.36C481.388 199.829 481.565 199.322 481.841 198.878C482.116 198.434 482.483 198.065 482.912 197.801Z" fill="#E0E0E0"/>
<path d="M465.514 239.814L505.221 214.922V244.88L506.137 245.45L466.43 270.33L465.514 269.759V239.814Z" fill="#E0E0E0"/>
<path d="M466.431 240.384L506.137 215.505V245.45L466.431 270.329V240.384Z" fill="#F5F5F5"/>
<path d="M481.995 235.703L488.752 231.472C489.619 230.928 490.328 231.18 490.328 232.029C490.263 232.558 490.087 233.064 489.814 233.508C489.541 233.952 489.177 234.321 488.752 234.589L481.995 238.819C481.116 239.363 480.407 239.111 480.407 238.249C480.473 237.72 480.651 237.215 480.927 236.774C481.202 236.332 481.568 235.966 481.995 235.703Z" fill="#E0E0E0"/>
<path d="M130.989 364.184C130.989 364.184 131.124 343.151 118.906 327.383C108.094 313.418 102.34 304.559 105.748 300.474C109.157 296.39 116.487 295.408 126.371 306.707C136.255 318.006 137.025 349.304 135.656 356.386L130.989 364.184Z" fill="#02897A"/>
<path opacity="0.2" d="M130.989 364.184C130.989 364.184 131.124 343.151 118.906 327.383C108.094 313.418 102.34 304.559 105.748 300.474C109.157 296.39 116.487 295.408 126.371 306.707C136.255 318.006 137.025 349.304 135.656 356.386L130.989 364.184Z" fill="black"/>
<path d="M133.042 341.572C132.903 341.573 132.768 341.522 132.659 341.428C132.55 341.334 132.474 341.203 132.443 341.055C128.167 319.346 117.196 307.344 111.026 302.118C110.898 302.011 110.815 301.853 110.795 301.679C110.774 301.505 110.818 301.329 110.916 301.19C111.017 301.051 111.165 300.96 111.327 300.938C111.49 300.915 111.654 300.963 111.784 301.071C118.076 306.375 129.279 318.656 133.641 340.777C133.658 340.861 133.661 340.949 133.647 341.034C133.633 341.12 133.604 341.201 133.56 341.274C133.517 341.347 133.461 341.41 133.395 341.459C133.329 341.508 133.255 341.542 133.176 341.559L133.042 341.572Z" fill="white"/>
<path d="M130.525 371.996L125.553 375.112C125.023 373.539 124.128 372.14 122.955 371.051C121.783 369.962 120.372 369.218 118.858 368.892C113.421 367.566 107.777 367.792 103.965 362.673C100.153 357.553 104.796 351.983 103.965 348.217C103.134 344.451 102.597 343.363 95.7792 339.597C88.9619 335.831 86.2741 329.584 91.4054 325.354C96.5367 321.123 104.845 324.226 109.878 328.006C114.35 331.321 118.601 332.197 123.598 332.873C128.595 333.549 136.732 336.56 135.486 349.159C134.67 356.957 133.005 364.623 130.525 371.996Z" fill="#02897A"/>
<path d="M111.442 355.445C111.312 355.444 111.185 355.398 111.08 355.315C110.975 355.232 110.896 355.115 110.855 354.981C110.809 354.812 110.825 354.63 110.901 354.474C110.976 354.318 111.104 354.2 111.259 354.145C111.698 353.999 122.254 350.366 126.738 354.265C126.849 354.379 126.917 354.534 126.928 354.7C126.939 354.865 126.892 355.029 126.797 355.159C126.702 355.289 126.565 355.376 126.414 355.402C126.263 355.428 126.108 355.391 125.981 355.299C122.022 351.851 111.735 355.379 111.625 355.418L111.442 355.445Z" fill="white"/>
<path d="M131.075 370.987C130.926 370.988 130.783 370.929 130.672 370.821C130.561 370.713 130.492 370.564 130.477 370.404C127.752 342.474 96.7565 329.226 96.4511 329.093C96.3754 329.062 96.306 329.015 96.2471 328.955C96.1882 328.895 96.1409 328.823 96.1079 328.742C96.075 328.662 96.057 328.576 96.0551 328.488C96.0532 328.4 96.0674 328.313 96.0968 328.231C96.1569 328.07 96.2715 327.941 96.417 327.869C96.5625 327.798 96.7278 327.789 96.8787 327.846C97.2086 327.992 128.888 341.519 131.686 370.284C131.703 370.458 131.656 370.632 131.556 370.769C131.455 370.906 131.309 370.994 131.148 371.014L131.075 370.987Z" fill="white"/>
<path d="M434.959 353.654C435.093 353.19 440.334 323.908 434.959 303.14C430.072 284.096 423.694 277.067 414.604 275.516C405.515 273.964 401.568 281.072 406.394 290.7C411.22 300.329 422.839 313.1 425.686 334.61C426.907 343.469 427.836 351.161 427.836 351.161L434.959 353.654Z" fill="#02897A"/>
<path opacity="0.2" d="M434.959 353.654C435.093 353.19 440.334 323.908 434.959 303.14C430.072 284.096 423.694 277.067 414.604 275.516C405.515 273.964 401.568 281.072 406.394 290.7C411.22 300.329 422.839 313.1 425.686 334.61C426.907 343.469 427.836 351.161 427.836 351.161L434.959 353.654Z" fill="black"/>
<path d="M431.892 336.838C431.811 336.833 431.733 336.811 431.66 336.773C431.588 336.735 431.523 336.682 431.47 336.616C431.417 336.551 431.376 336.475 431.35 336.392C431.323 336.31 431.312 336.223 431.317 336.135C432.539 312.423 425.404 291.257 412.613 280.873C412.483 280.768 412.397 280.611 412.374 280.437C412.351 280.263 412.393 280.086 412.49 279.945C412.589 279.807 412.734 279.716 412.893 279.692C413.053 279.667 413.215 279.71 413.346 279.812C426.455 290.422 433.81 312.065 432.527 336.215C432.517 336.389 432.445 336.551 432.327 336.668C432.208 336.784 432.052 336.846 431.892 336.838Z" fill="white"/>
<path d="M449.021 368.906C448.324 363.455 451.208 355.286 458.062 353.35C464.916 351.413 467.97 347.143 465.502 342.475C463.034 337.807 463.608 333.523 469.827 331.587C476.046 329.651 481.495 326.282 477.915 319.147C475.313 313.988 474.738 310.646 481.116 300.488C486.406 292.053 482.081 287.107 475.459 288.035C468.837 288.963 464.745 297.53 460.603 298.963C456.461 300.395 455.508 292.756 450.047 296.178C444.586 299.599 444.916 308.365 444.745 314.479C444.574 320.593 444.207 321.972 439.271 321.229C434.335 320.487 429.497 321.362 429.607 334.319C429.693 345.432 435.154 359.198 435.154 359.198L449.021 368.906Z" fill="#02897A"/>
<path d="M440.358 360.617H440.297C440.134 360.597 439.984 360.508 439.882 360.369C439.779 360.229 439.73 360.052 439.748 359.874C443.193 326.468 469.607 298.286 476.497 292.57C476.627 292.463 476.791 292.416 476.952 292.44C477.114 292.463 477.26 292.556 477.359 292.696C477.458 292.837 477.501 293.015 477.479 293.19C477.457 293.365 477.372 293.524 477.243 293.631C470.438 299.268 444.366 327.078 440.969 360.02C440.952 360.183 440.88 360.334 440.767 360.443C440.655 360.553 440.51 360.615 440.358 360.617Z" fill="white"/>
<path d="M452.405 324.903C452.281 324.902 452.16 324.862 452.058 324.786C451.956 324.71 451.877 324.603 451.83 324.479C451.778 324.312 451.787 324.129 451.855 323.968C451.924 323.808 452.046 323.682 452.197 323.617C462.044 319.638 473.211 321.521 473.687 321.601C473.846 321.63 473.987 321.726 474.081 321.867C474.174 322.009 474.213 322.185 474.188 322.357C474.159 322.528 474.07 322.681 473.941 322.784C473.812 322.887 473.651 322.934 473.492 322.914C473.382 322.914 462.166 321.004 452.625 324.863C452.554 324.889 452.48 324.903 452.405 324.903Z" fill="white"/>
<path d="M443.632 344.981C443.547 344.98 443.462 344.96 443.384 344.921C443.306 344.882 443.237 344.826 443.18 344.756C439.085 339.579 436.309 333.329 435.129 326.627C435.117 326.541 435.121 326.453 435.14 326.368C435.159 326.283 435.193 326.203 435.241 326.133C435.289 326.063 435.349 326.004 435.418 325.959C435.486 325.914 435.563 325.884 435.642 325.871C435.722 325.858 435.803 325.862 435.881 325.883C435.959 325.903 436.032 325.941 436.097 325.993C436.162 326.044 436.216 326.109 436.258 326.184C436.299 326.259 436.327 326.342 436.339 326.428C437.507 332.866 440.178 338.871 444.097 343.867C444.173 343.965 444.222 344.084 444.239 344.211C444.255 344.338 444.238 344.467 444.189 344.584C444.141 344.7 444.063 344.8 443.964 344.87C443.865 344.94 443.75 344.979 443.632 344.981Z" fill="white"/>
<path d="M130.526 166.741V372.008L324.074 250.715L324.062 64.1074L180.153 154.301L175.18 138.745L130.526 166.741Z" fill="#22343D"/>
<path d="M130.526 372.008L140.446 185.4L333.994 64.1074L324.074 250.715L130.526 372.008Z" fill="#E0E0E0"/>
<path d="M130.526 372.008L145.407 188.517L338.955 67.2112L324.074 250.715L130.526 372.008Z" fill="#22343D"/>
<path d="M160.299 185.401V390.681L353.847 269.375V82.7677L209.926 172.962L204.966 157.405L160.299 185.401Z" fill="#F03E3D"/>
<path d="M160.299 390.681L170.22 204.061L363.768 82.7677L353.847 269.375L160.299 390.681Z" fill="#E0E0E0"/>
<path d="M160.299 390.681L175.18 207.177L368.728 85.8707L353.847 269.375L160.299 390.681Z" fill="#F03E3D"/>
<path d="M324.025 455.996C289.279 434.22 257.049 410.548 242.339 382.777L287.055 354.755L324.025 455.996Z" fill="#E0E0E0"/>
<path d="M195.033 207.177V412.444L388.581 291.151V104.543L244.66 194.737L239.7 179.181L195.033 207.177Z" fill="#02897A"/>
<path opacity="0.2" d="M195.033 207.177V412.444L388.581 291.151V104.543L244.66 194.737L239.7 179.181L195.033 207.177Z" fill="black"/>
<path d="M250.793 267.863C250.305 267.863 250.231 267.253 250.231 266.894V91.8381C250.271 91.159 250.454 90.499 250.768 89.91C251.082 89.3209 251.517 88.8188 252.04 88.443L391.733 0.914831C391.924 0.785309 392.143 0.712165 392.369 0.702637C392.857 0.702637 392.931 1.31269 392.931 1.67076V176.727C392.892 177.408 392.709 178.07 392.395 178.662C392.082 179.253 391.646 179.758 391.122 180.135L251.429 267.664C251.236 267.787 251.017 267.855 250.793 267.863Z" fill="white"/>
<path d="M392.295 1.31313C392.305 1.41009 392.305 1.50794 392.295 1.60489V176.661C392.255 177.226 392.099 177.774 391.839 178.265C391.579 178.756 391.222 179.177 390.793 179.499L251.099 267.028L250.855 267.147C250.838 267.05 250.838 266.952 250.855 266.855V91.7987C250.897 91.2364 251.053 90.6913 251.313 90.2027C251.573 89.7142 251.93 89.2945 252.357 88.974L392.051 1.44575C392.128 1.38725 392.215 1.34662 392.308 1.3264L392.295 1.31313ZM392.381 0.000211864C392.048 0.0109635 391.724 0.116131 391.44 0.305239L251.746 87.8334C251.132 88.2713 250.621 88.8593 250.254 89.5502C249.887 90.2411 249.674 91.0157 249.633 91.812V266.868C249.633 267.903 250.109 268.5 250.855 268.5C251.187 268.49 251.512 268.385 251.795 268.195L391.489 180.666C392.106 180.232 392.619 179.644 392.986 178.953C393.354 178.261 393.565 177.485 393.603 176.688V1.63142C393.603 0.597 393.126 -0.01305 392.381 0.000211864Z" fill="#02897A"/>
<path opacity="0.7" d="M392.295 1.31313C392.305 1.41009 392.305 1.50794 392.295 1.60489V176.661C392.255 177.226 392.099 177.774 391.839 178.265C391.579 178.756 391.222 179.177 390.793 179.499L251.099 267.028L250.855 267.147C250.838 267.05 250.838 266.952 250.855 266.855V91.7987C250.897 91.2364 251.053 90.6913 251.313 90.2027C251.573 89.7142 251.93 89.2945 252.357 88.974L392.051 1.44575C392.128 1.38725 392.215 1.34662 392.308 1.3264L392.295 1.31313ZM392.381 0.000211864C392.048 0.0109635 391.724 0.116131 391.44 0.305239L251.746 87.8334C251.132 88.2713 250.621 88.8593 250.254 89.5502C249.887 90.2411 249.674 91.0157 249.633 91.812V266.868C249.633 267.903 250.109 268.5 250.855 268.5C251.187 268.49 251.512 268.385 251.795 268.195L391.489 180.666C392.106 180.232 392.619 179.644 392.986 178.953C393.354 178.261 393.565 177.485 393.603 176.688V1.63142C393.603 0.597 393.126 -0.01305 392.381 0.000211864Z" fill="white"/>
<path d="M264.514 98.4828L314.141 67.3838V129.582L264.514 160.681V98.4828Z" fill="#02897A"/>
<path opacity="0.8" d="M264.514 98.4828L314.141 67.3838V129.582L264.514 160.681V98.4828Z" fill="#11B5E4"/>
<path d="M306.7 82.8872V101.586L305.137 102.528V96.8121C305.137 93.6558 302.779 92.5816 299.846 94.4118L278.82 107.607C275.9 109.437 273.53 113.482 273.53 116.639V122.354L271.979 123.362V104.703L306.7 82.8872Z" fill="white"/>
<path d="M297.146 130.497C294.605 132.088 292.54 130.417 292.54 126.744V96.8118L286.15 100.578V130.749C286.15 134.409 284.086 138.706 281.544 140.258L276.926 143.149V145.138L301.74 129.582V127.606L297.146 130.497Z" fill="white"/>
<path d="M324.024 64.3205C324.024 66.0446 325.454 66.5352 327.201 65.4478L375.484 35.1445C376.341 34.6174 377.073 33.8821 377.624 32.9963C378.176 32.1104 378.53 31.0981 378.661 30.0386C378.661 28.3279 377.231 27.8239 375.484 28.9246L327.238 59.1617C326.367 59.6877 325.622 60.4288 325.064 61.325C324.506 62.2212 324.15 63.2473 324.024 64.3205Z" fill="#455A64"/>
<path d="M324.024 82.887C324.024 84.6111 325.454 85.115 327.201 84.0143L375.447 53.7773C376.304 53.2502 377.037 52.5149 377.588 51.6291C378.139 50.7433 378.494 49.7309 378.624 48.6714C378.624 46.9607 377.194 46.4567 375.447 47.5575L327.201 77.7945C326.346 78.3202 325.614 79.0534 325.063 79.9368C324.512 80.8202 324.157 81.8299 324.024 82.887Z" fill="#455A64"/>
<path d="M324.024 101.586C324.024 103.31 325.454 103.813 327.201 102.713L375.447 72.4758C376.303 71.95 377.034 71.2168 377.585 70.3334C378.136 69.45 378.492 68.4403 378.624 67.3832C378.624 65.6592 377.194 65.1552 375.447 66.2559L327.201 96.4929C326.346 97.0187 325.614 97.7519 325.063 98.6353C324.512 99.5187 324.157 100.528 324.024 101.586Z" fill="#455A64"/>
<path d="M324.024 120.246C324.024 121.97 325.454 122.474 327.201 121.373L375.447 91.136C376.303 90.6103 377.034 89.8771 377.585 88.9937C378.136 88.1103 378.492 87.1006 378.624 86.0435C378.624 84.3194 377.194 83.8155 375.447 84.9162L327.201 115.153C326.346 115.679 325.614 116.412 325.063 117.296C324.512 118.179 324.157 119.189 324.024 120.246Z" fill="#455A64"/>
<path d="M264.514 176.237C264.514 177.961 265.931 178.465 267.69 177.365L375.484 109.729C376.341 109.205 377.073 108.472 377.624 107.589C378.176 106.705 378.53 105.694 378.661 104.637C378.661 102.913 377.231 102.422 375.484 103.509L267.69 171.145C266.833 171.668 266.1 172.401 265.549 173.285C264.998 174.168 264.643 175.179 264.514 176.237Z" fill="#455A64"/>
<path d="M264.514 194.896C264.514 196.62 265.931 197.124 267.69 196.023L375.484 128.467C376.341 127.94 377.074 127.205 377.625 126.319C378.176 125.433 378.53 124.421 378.661 123.362C378.661 121.651 377.231 121.147 375.484 122.248L267.69 189.803C266.833 190.327 266.1 191.059 265.549 191.943C264.998 192.827 264.643 193.838 264.514 194.896Z" fill="#455A64"/>
<path d="M264.514 213.569C264.514 215.279 265.931 215.783 267.69 214.683L375.484 147.127C376.341 146.6 377.074 145.864 377.625 144.979C378.176 144.093 378.53 143.08 378.661 142.021C378.661 140.31 377.231 139.806 375.484 140.907L267.69 208.463C266.832 208.987 266.098 209.722 265.546 210.608C264.995 211.495 264.641 212.508 264.514 213.569Z" fill="#455A64"/>
<path d="M195.033 412.444L229.768 247.612L423.315 126.306L388.581 291.151L195.033 412.444Z" fill="#02897A"/>
<path d="M242.388 260.516V382.777L287.055 354.781V232.533L242.388 260.516Z" fill="#02897A"/>
<path opacity="0.2" d="M242.388 260.516V382.777L287.055 354.781V232.533L242.388 260.516Z" fill="black"/>
<path d="M324.11 455.2C320.311 452.124 283.683 421.741 265.064 378.282C245.247 332.077 245.271 278.181 245.271 257.904V257.267L378.05 174.062C378.05 194.525 378.05 248.501 397.952 294.865C416.144 337.302 451.367 367.301 456.95 371.889L324.11 455.2Z" fill="white"/>
<path d="M377.439 175.256C377.439 196.581 377.818 249.522 397.402 295.196C414.983 336.175 448.41 365.643 455.85 371.863L324.147 454.404C319.003 450.2 283.756 420.321 265.626 378.056C245.834 331.984 245.834 278.194 245.834 257.943V257.691L377.39 175.242L377.439 175.256ZM378.612 172.948L244.612 256.935C244.612 276.019 244.245 331.467 264.465 378.613C284.367 424.883 324.025 455.996 324.025 455.996L458.062 371.995C458.062 371.995 418.355 340.883 398.514 294.612C378.282 247.466 378.661 192.019 378.661 172.935L378.612 172.948Z" fill="#02897A"/>
<path opacity="0.7" d="M377.439 175.256C377.439 196.581 377.818 249.522 397.402 295.196C414.983 336.175 448.41 365.643 455.85 371.863L324.147 454.404C319.003 450.2 283.756 420.321 265.626 378.056C245.834 331.984 245.834 278.194 245.834 257.943V257.691L377.39 175.242L377.439 175.256ZM378.612 172.948L244.612 256.935C244.612 276.019 244.245 331.467 264.465 378.613C284.367 424.883 324.025 455.996 324.025 455.996L458.062 371.995C458.062 371.995 418.355 340.883 398.514 294.612C378.282 247.466 378.661 192.019 378.661 172.935L378.612 172.948Z" fill="white"/>
<path d="M363.499 201.116L321.129 227.64C320.281 228.146 319.558 228.868 319.022 229.743C318.486 230.618 318.153 231.621 318.05 232.666C318.111 234.35 319.59 234.828 321.337 233.727L363.719 207.203C364.557 206.701 365.272 205.989 365.806 205.126C366.339 204.264 366.675 203.275 366.785 202.243C366.712 200.493 365.258 200.015 363.499 201.116Z" fill="#455A64"/>
<path d="M364.403 219.218L322.033 245.742C321.195 246.231 320.485 246.943 319.968 247.81C319.451 248.677 319.144 249.672 319.077 250.702C319.211 252.333 320.75 252.771 322.498 251.67L364.88 225.147C365.714 224.659 366.419 223.949 366.93 223.084C367.441 222.218 367.74 221.226 367.8 220.2C367.677 218.555 366.162 218.158 364.403 219.218Z" fill="#455A64"/>
<path d="M366.102 236.817L323.719 263.341C321.972 264.442 320.702 266.63 320.909 268.208C321.117 269.786 322.718 270.197 324.477 269.097L366.859 242.573C368.606 241.472 369.852 239.297 369.632 237.719C369.412 236.141 367.849 235.717 366.102 236.817Z" fill="#455A64"/>
<path d="M368.643 253.885L326.26 280.409C324.513 281.51 323.304 283.658 323.597 285.196C323.89 286.735 325.552 287.079 327.262 285.979L369.632 259.455C371.391 258.354 372.564 256.219 372.271 254.681C371.978 253.142 370.451 252.784 368.643 253.885Z" fill="#455A64"/>
<path d="M372.088 270.383L329.706 296.907C327.959 298.008 326.823 300.103 327.262 301.575C327.702 303.047 329.376 303.379 331.123 302.278L373.505 275.754C375.264 274.653 376.364 272.571 375.949 271.086C375.533 269.601 373.835 269.282 372.088 270.383Z" fill="#455A64"/>
<path d="M376.56 286.284L273.274 351.015C271.527 352.116 270.464 354.158 270.94 355.577C271.417 356.996 273.237 357.262 274.984 356.161L378.27 291.43C380.029 290.329 381.043 288.3 380.567 286.868C380.09 285.435 378.246 285.183 376.56 286.284Z" fill="#455A64"/>
<path d="M381.996 301.469L278.722 366.2C276.963 367.3 275.998 369.29 276.584 370.642C277.171 371.995 279.028 372.207 280.812 371.106L384.097 306.375C385.857 305.275 386.797 303.285 386.211 301.933C385.625 300.58 383.755 300.381 381.996 301.469Z" fill="#455A64"/>
<path d="M388.777 315.938L285.491 380.669C283.732 381.769 282.865 383.706 283.561 384.992C284.257 386.278 286.249 386.411 288.008 385.31L391.221 320.579C392.968 319.492 393.811 317.569 393.114 316.282C392.418 314.996 390.488 314.837 388.777 315.938Z" fill="#455A64"/>
<path d="M396.681 329.624L293.408 394.341C291.648 395.442 290.866 397.339 291.661 398.545C292.455 399.752 294.544 399.872 296.303 398.758L399.577 334.027C401.336 332.926 402.094 331.056 401.299 329.836C400.505 328.616 398.441 328.523 396.681 329.624Z" fill="#455A64"/>
<path d="M405.697 342.633L302.412 407.351C300.665 408.452 299.968 410.295 300.848 411.449C301.727 412.603 303.89 412.656 305.649 411.555L408.935 346.798C410.682 345.697 411.379 343.88 410.474 342.726C409.57 341.572 407.457 341.493 405.697 342.633Z" fill="#455A64"/>
<path d="M415.655 355.02L312.406 419.737C310.647 420.838 309.963 422.642 310.989 423.716C312.015 424.79 314.19 424.817 315.937 423.716L419.223 358.985C420.982 357.884 421.593 356.107 420.616 355.006C419.638 353.906 417.439 353.932 415.655 355.02Z" fill="#455A64"/>
<path d="M426.651 366.863L323.365 431.581C321.618 432.681 321.043 434.445 322.143 435.493C323.243 436.541 325.491 436.501 327.25 435.4L430.45 370.669C432.197 369.568 432.747 367.844 431.672 366.783C430.597 365.722 428.361 365.762 426.651 366.863Z" fill="#455A64"/>
<path d="M305.772 237.308L257.049 267.81C257.586 286.973 259.602 314.611 266.982 342.448L315.717 311.945C308.325 284.109 306.309 256.458 305.772 237.308Z" fill="#02897A"/>
<path opacity="0.8" d="M305.772 237.308L257.049 267.81C257.586 286.973 259.602 314.611 266.982 342.448L315.717 311.945C308.325 284.109 306.309 256.458 305.772 237.308Z" fill="#11B5E4"/>
<path d="M276.914 263.593C276.98 262.356 276.803 261.118 276.394 259.961C275.985 258.804 275.355 257.754 274.544 256.882L257.049 267.836C257.195 272.902 257.44 278.565 257.867 284.666C260.143 284.95 262.445 284.488 264.477 283.339C271.355 279.918 276.914 271.046 276.914 263.593Z" fill="#02897A"/>
<path opacity="0.6" d="M276.914 263.593C276.98 262.356 276.803 261.118 276.394 259.961C275.985 258.804 275.355 257.754 274.544 256.882L257.049 267.836C257.195 272.902 257.44 278.565 257.867 284.666C260.143 284.95 262.445 284.488 264.477 283.339C271.355 279.918 276.914 271.046 276.914 263.593Z" fill="white"/>
<path d="M311.575 293.644C308.325 289.202 301.715 275.476 298.893 269.495C298.782 269.258 298.609 269.063 298.395 268.935C298.181 268.807 297.936 268.751 297.693 268.776C297.449 268.8 297.218 268.903 297.029 269.071C296.84 269.24 296.702 269.466 296.633 269.72C293.58 281.049 291.807 292.739 291.355 304.532C287.286 301.026 283.788 296.803 281.007 292.04C280.888 291.855 280.724 291.711 280.532 291.625C280.341 291.539 280.131 291.513 279.926 291.552C279.722 291.591 279.533 291.693 279.38 291.845C279.227 291.997 279.118 292.194 279.064 292.411C273.738 314.678 276.413 336.586 276.413 336.586L315.717 311.946C314.079 305.792 312.723 299.665 311.575 293.644Z" fill="#02897A"/>
<path opacity="0.6" d="M311.575 293.644C308.325 289.202 301.715 275.476 298.893 269.495C298.782 269.258 298.609 269.063 298.395 268.935C298.181 268.807 297.936 268.751 297.693 268.776C297.449 268.8 297.218 268.903 297.029 269.071C296.84 269.24 296.702 269.466 296.633 269.72C293.58 281.049 291.807 292.739 291.355 304.532C287.286 301.026 283.788 296.803 281.007 292.04C280.888 291.855 280.724 291.711 280.532 291.625C280.341 291.539 280.131 291.513 279.926 291.552C279.722 291.591 279.533 291.693 279.38 291.845C279.227 291.997 279.118 292.194 279.064 292.411C273.738 314.678 276.413 336.586 276.413 336.586L315.717 311.946C314.079 305.792 312.723 299.665 311.575 293.644Z" fill="white"/>
</svg>
